# xmcd CD database file
#
# Track frame offsets:
#	150
#	14974
#	27083
#	38143
#	47517
#	56992
#	71741
#	82956
#	97793
#	112669
#	137650
#	146221
#	158084
#	173146
#	181198
#	191088
#	206855
#	218258
#	232467
#	241396
#
# Disc length: 3334 seconds
#
# Revision: 0
# Processed by: cddbd v1.5.1PL2 Copyright (c) Steve Scherf et al.
# Submitted via: CDex 1.50
#
DISCID=1b0d0414
DTITLE=Various Artist - Best of Country Ladies CD 5
DYEAR=1900
DGENRE=Country
TTITLE0=Billie Joe Speaers - Chrystal Chandeliers
TTITLE1=Lynn Anderson - I've Never Loves Anyone More
TTITLE2=Patsy Cline - Hidin' Out
TTITLE3=Dolly Parton - Girl Left Alone
TTITLE4=Patsy Cline - I'm Moving Along
TTITLE5=Connie Smith - Did We Have To Come This Far To Stay
TTITLE6=Kitty Wells - Mommy For A Day
TTITLE7=Tammy Wynette - Cryinf in The Rain
TTITLE8=Tina Turner - Good Hearted Woman
TTITLE9=Dottie West - An American Trilogy
TTITLE10=Barbara Mandrell - I Gave My Love To A Railroad man
TTITLE11=Anne Murray - Last Thing On My Mind
TTITLE12=Barbara Fairchild - So Began The Blues
TTITLE13=Tammy Wynette - When The Gras GROWS OVER ME
TTITLE14=Gail Davies - Singin' The Blues
TTITLE15=Kathy Mattea - Heart Of Country
TTITLE16=Barbara Mandrell - Playing Around With Love
TTITLE17=Dottie West - What Are We Doin' In Love
TTITLE18=Kitty Wells - I'll Repossess My Heart
TTITLE19=Patsy Cline - Try Again
EXTD=
EXTT0=
EXTT1=
EXTT2=
EXTT3=
EXTT4=
EXTT5=
EXTT6=
EXTT7=
EXTT8=
EXTT9=
EXTT10=
EXTT11=
EXTT12=
EXTT13=
EXTT14=
EXTT15=
EXTT16=
EXTT17=
EXTT18=
EXTT19=
PLAYORDER=
